HIERARCHY
ROOT root
{
	OFFSET	0	13.1	24.9
	CHANNELS 6  Xposition Yposition Zposition Xrotation Yrotation Zrotation
	JOINT spine_1
	{
		OFFSET	0	9.99999	0
		CHANNELS 3  Xrotation Yrotation Zrotation
		JOINT spine_2
		{
			OFFSET	0	112	-10
			CHANNELS 3  Xrotation Yrotation Zrotation
			JOINT spine_3
			{
				OFFSET	0	206.5	19.3
				CHANNELS 3  Xrotation Yrotation Zrotation
				JOINT spine_4
				{
					OFFSET	0	110.4	14.6
					CHANNELS 3  Xrotation Yrotation Zrotation
					JOINT neck_1
					{
						OFFSET	0	71.8	-50.3
						CHANNELS 3  Xrotation Yrotation Zrotation
						JOINT neck_2
						{
							OFFSET	0	86.2	-25.8
							CHANNELS 3  Xrotation Yrotation Zrotation
							JOINT head_ee
							{
								OFFSET	0	179.8	-8.7
								CHANNELS 3  Xrotation Yrotation Zrotation
								End Site
								{
									OFFSET	1	0	0
								}
							}
						}
					}
					JOINT left_clavicle
					{
						OFFSET	-43.2	22.4	-70.8
						CHANNELS 3  Xrotation Yrotation Zrotation
						JOINT left_shoulder
						{
							OFFSET	-93.9	-5.79999	48.7
							CHANNELS 3  Xrotation Yrotation Zrotation
							JOINT left_elbow
							{
								OFFSET	-291.4	-30.8	15.2
								CHANNELS 3  Xrotation Yrotation Zrotation
								JOINT left_lowarm_twist
								{
									OFFSET	-110.7	-3.89999	13.6
									CHANNELS 3  Xrotation Yrotation Zrotation
									JOINT left_hand
									{
										OFFSET	-110.7	-3.89999	13.6
										CHANNELS 3  Xrotation Yrotation Zrotation
										JOINT left_ee
										{
											OFFSET	-80.8	-5.10001	12.1
											CHANNELS 3  Xrotation Yrotation Zrotation
											End Site
											{
												OFFSET	1	0	0
											}
										}
									}
								}
							}
						}
					}
					JOINT right_clavicle
					{
						OFFSET	43.2	22.4	-70.8
						CHANNELS 3  Xrotation Yrotation Zrotation
						JOINT right_shoulder
						{
							OFFSET	93.9	-5.79999	48.7
							CHANNELS 3  Xrotation Yrotation Zrotation
							JOINT right_elbow
							{
								OFFSET	291.4	-30.8	15.2
								CHANNELS 3  Xrotation Yrotation Zrotation
								JOINT right_lowarm_twist
								{
									OFFSET	110.7	-3.89999	13.6
									CHANNELS 3  Xrotation Yrotation Zrotation
									JOINT right_hand
									{
										OFFSET	110.7	-3.89999	13.6
										CHANNELS 3  Xrotation Yrotation Zrotation
										JOINT right_ee
										{
											OFFSET	80.8	-5.10001	12.1
											CHANNELS 3  Xrotation Yrotation Zrotation
											End Site
											{
												OFFSET	1	0	0
											}
										}
									}
								}
							}
						}
					}
				}
			}
		}
	}
	JOINT left_hip
	{
		OFFSET	-82.8	-127.5	0.300001
		CHANNELS 3  Xrotation Yrotation Zrotation
		JOINT left_knee
		{
			OFFSET	-28.2	-396.7	2.2
			CHANNELS 3  Xrotation Yrotation Zrotation
			JOINT left_ankle
			{
				OFFSET	-11.7	-411.3	35.4
				CHANNELS 3  Xrotation Yrotation Zrotation
				JOINT left_toes
				{
					OFFSET	0	-60	-88.6
					CHANNELS 3  Xrotation Yrotation Zrotation
					JOINT left_foot_ee
					{
						OFFSET	-22.5	-16.5	-42.2
						CHANNELS 3  Xrotation Yrotation Zrotation
						End Site
						{
							OFFSET	1	0	0
						}
					}
				}
			}
		}
	}
	JOINT right_hip
	{
		OFFSET	82.8	-127.5	0.300001
		CHANNELS 3  Xrotation Yrotation Zrotation
		JOINT right_knee
		{
			OFFSET	28.2	-396.7	2.2
			CHANNELS 3  Xrotation Yrotation Zrotation
			JOINT right_ankle
			{
				OFFSET	11.7	-411.3	35.4
				CHANNELS 3  Xrotation Yrotation Zrotation
				JOINT right_toes
				{
					OFFSET	0	-60	-88.6
					CHANNELS 3  Xrotation Yrotation Zrotation
					JOINT right_foot_ee
					{
						OFFSET	22.5	-16.5	-42.2
						CHANNELS 3  Xrotation Yrotation Zrotation
						End Site
						{
							OFFSET	1	0	0
						}
					}
				}
			}
		}
	}
}
MOTION
Frames: 7
Frame Time: 0.02
391.555 721.904 -1204.45 179.521531892 -35.2554712872 175.74746739 -6.46142 0.51875 1.13121 -6.46082 0.445722 1.16192 -6.44975 0.0522607 1.24337 -6.45183 0.247958 1.21952 0.843659 6.57435 -1.99146 1.01725 13.2942 -1.5512 -0.0 0.0 -0.0 9.74236 14.0759 17.9034 -25.3047 -36.7744 51.6699 0.185978 -5.26383 0.00854908 -46.6838 -3.68836 4.49832 7.41438 20.8397 71.9757 -0.0 0.0 -0.0 9.59846 21.7928 -18.3655 -9.91256 42.528 -27.6946 1.08563 28.2701 -0.273404 -33.8022 2.31742 -3.58094 -12.0714 -32.3954 68.4219 0.0 0.0 0.0 17.0013 -5.13866 8.66066 -21.1448 0.280276 3.21434 13.45 24.3585 -1.97092 15.615 -0.0 -0.0 -0.0 0.0 -0.0 11.4513 13.9419 9.93899 -32.1919 0.0461113 -4.8757 9.73007 -13.8676 1.39185 1.90633 -0.0 -0.0 0.0 0.0 0.0 
475.438802028 701.073 -1157.31690795 173.422436604 -46.6920390994 174.000404254 -6.18395 0.0358319 0.32589 -6.1839 0.0150221 0.32751 -6.18369 -0.0886642 0.315637 -6.18383 -0.0377027 0.325679 -3.3485 4.81589 2.37633 -3.32162 6.93001 3.18206 -0.0 0.0 -0.0 8.5662 18.908 15.3191 -15.9974 -36.2976 56.1375 0.207894 -5.88 0.010677 -17.9906 -0.968584 2.07711 6.19293 0.559119 46.74 -0.0 0.0 -0.0 8.12571 12.4071 -15.6956 -17.5028 55.2997 -27.2979 0.843333 22.6732 -0.169078 -33.0714 2.24623 -3.51996 -12.0178 -33.147 64.4851 0.0 0.0 0.0 2.83234 -0.742525 6.10408 -16.6686 0.320426 2.52889 -16.1762 8.36154 2.42702 9.40146 -0.0 -0.0 -0.0 0.0 -0.0 21.335 26.2924 -5.85468 -57.6994 1.95675 -8.26713 -23.2058 -20.0139 -3.5603 13.3864 -0.0 -0.0 0.0 0.0 0.0 
523.353250088 696.388 -1128.36241298 173.551172271 -55.2488756084 177.355467009 -5.37223 -0.090333 -0.374788 -5.37215 -0.0663014 -0.379776 -5.37155 0.0509966 -0.382132 -5.37175 -0.00999365 -0.38539 2.59706 5.2546 0.582077 2.66611 8.69431 1.03802 -0.0 0.0 -0.0 6.23976 21.5273 11.4973 -7.27819 -35.5291 58.1898 0.689702 -18.8632 0.114572 -11.7456 -0.558657 1.39134 6.83359 -12.5455 44.8649 -0.0 0.0 -0.0 6.95704 12.0781 -13.2019 -25.8954 58.8395 -30.5002 0.713926 19.4766 -0.122526 -29.3162 1.89307 -3.19268 -11.8129 -31.5492 66.8308 0.0 0.0 0.0 -0.558544 -15.5339 4.54013 -17.1418 0.318715 2.60147 -14.0536 11.7564 2.10778 4.67859 -0.0 -0.0 -0.0 0.0 -0.0 37.9459 24.4757 -17.1016 -66.7624 2.97271 -9.22616 -23.8913 -15.1738 -3.61709 17.9563 -0.0 -0.0 0.0 0.0 0.0 
520.745450858 696.388 -1124.01414337 173.842865473 -53.351401196 177.714607877 -5.37223 -0.090333 -0.374788 -5.37215 -0.0663014 -0.379776 -5.37155 0.0509966 -0.382132 -5.37175 -0.00999365 -0.38539 2.59706 5.2546 0.582077 2.66611 8.69431 1.03802 -0.0 0.0 -0.0 6.23976 21.5273 11.4973 -7.27819 -35.5291 58.1898 0.689702 -18.8632 0.114572 -11.7456 -0.558657 1.39134 6.83359 -12.5455 44.8649 -0.0 0.0 -0.0 6.95704 12.0781 -13.2019 -25.8954 58.8395 -30.5002 0.713926 19.4766 -0.122526 -29.3162 1.89307 -3.19268 -11.8129 -31.5492 66.8308 0.0 0.0 0.0 -0.558544 -15.5339 4.54013 -17.1418 0.318715 2.60147 -14.0536 11.7564 2.10778 4.67859 -0.0 -0.0 -0.0 0.0 -0.0 37.9459 24.4757 -17.1016 -66.7624 2.97271 -9.22616 -23.8913 -15.1738 -3.61709 17.9563 -0.0 -0.0 0.0 0.0 0.0 
519.411273223 696.388 -1121.90987023 173.974414977 -52.418631632 177.879570001 -5.37223 -0.090333 -0.374788 -5.37215 -0.0663014 -0.379776 -5.37155 0.0509966 -0.382132 -5.37175 -0.00999365 -0.38539 2.59706 5.2546 0.582077 2.66611 8.69431 1.03802 -0.0 0.0 -0.0 6.23976 21.5273 11.4973 -7.27819 -35.5291 58.1898 0.689702 -18.8632 0.114572 -11.7456 -0.558657 1.39134 6.83359 -12.5455 44.8649 -0.0 0.0 -0.0 6.95704 12.0781 -13.2019 -25.8954 58.8395 -30.5002 0.713926 19.4766 -0.122526 -29.3162 1.89307 -3.19268 -11.8129 -31.5492 66.8308 0.0 0.0 0.0 -0.558544 -15.5339 4.54013 -17.1418 0.318715 2.60147 -14.0536 11.7564 2.10778 4.67859 -0.0 -0.0 -0.0 0.0 -0.0 37.9459 24.4757 -17.1016 -66.7624 2.97271 -9.22616 -23.8913 -15.1738 -3.61709 17.9563 -0.0 -0.0 0.0 0.0 0.0 
520.606324327 696.388 -1123.79111757 173.857090721 -53.2530058743 177.732349542 -5.37223 -0.090333 -0.374788 -5.37215 -0.0663014 -0.379776 -5.37155 0.0509966 -0.382132 -5.37175 -0.00999365 -0.38539 2.59706 5.2546 0.582077 2.66611 8.69431 1.03802 -0.0 0.0 -0.0 6.23976 21.5273 11.4973 -7.27819 -35.5291 58.1898 0.689702 -18.8632 0.114572 -11.7456 -0.558657 1.39134 6.83359 -12.5455 44.8649 -0.0 0.0 -0.0 6.95704 12.0781 -13.2019 -25.8954 58.8395 -30.5002 0.713926 19.4766 -0.122526 -29.3162 1.89307 -3.19268 -11.8129 -31.5492 66.8308 0.0 0.0 0.0 -0.558544 -15.5339 4.54013 -17.1418 0.318715 2.60147 -14.0536 11.7564 2.10778 4.67859 -0.0 -0.0 -0.0 0.0 -0.0 37.9459 24.4757 -17.1016 -66.7624 2.97271 -9.22616 -23.8913 -15.1738 -3.61709 17.9563 -0.0 -0.0 0.0 0.0 0.0 
520.476040565 696.388 -1123.58304182 173.87030091 -53.1611080279 177.748845671 -5.37223 -0.090333 -0.374788 -5.37215 -0.0663014 -0.379776 -5.37155 0.0509966 -0.382132 -5.37175 -0.00999365 -0.38539 2.59706 5.2546 0.582077 2.66611 8.69431 1.03802 -0.0 0.0 -0.0 6.23976 21.5273 11.4973 -7.27819 -35.5291 58.1898 0.689702 -18.8632 0.114572 -11.7456 -0.558657 1.39134 6.83359 -12.5455 44.8649 -0.0 0.0 -0.0 6.95704 12.0781 -13.2019 -25.8954 58.8395 -30.5002 0.713926 19.4766 -0.122526 -29.3162 1.89307 -3.19268 -11.8129 -31.5492 66.8308 0.0 0.0 0.0 -0.558544 -15.5339 4.54013 -17.1418 0.318715 2.60147 -14.0536 11.7564 2.10778 4.67859 -0.0 -0.0 -0.0 0.0 -0.0 37.9459 24.4757 -17.1016 -66.7624 2.97271 -9.22616 -23.8913 -15.1738 -3.61709 17.9563 -0.0 -0.0 0.0 0.0 0.0 
